<svg id="Logo" xmlns="http://www.w3.org/2000/svg" width="119.91" height="85.65" viewBox="0 0 2100 1500">
  <defs>
    <style>
      .cls-1 {
        fill: #ffd300;
      }

      .cls-1, .cls-2, .cls-3, .cls-4, .cls-5 {
        fill-rule: evenodd;
      }

      .cls-2 {
        fill: #751ebb;
      }

      .cls-3 {
        fill: #008e2c;
      }

      .cls-4 {
        fill: #006cb7;
      }

      .cls-5 {
        fill: #ff451a;
      }

      .cls-6 {
        font-size: 214.873px;
        font-family: "Segoe UI Emoji";
      }
    </style>
  </defs>
  <g id="LibroAmarillo">
    <path id="LibroAmarillo_-_interior" data-name="LibroAmarillo - interior" class="cls-1" d="M668,1146s-0.628,7,3,7h7s2-.39,2-6,2-175,2-175-0.128-4-3-4h-7s-3.628-.394-4,2S668,1146,668,1146Zm-43,0s-0.628,7,3,7h7s2-.39,2-6,2-175,2-175-0.128-4-3-4h-7s-3.628-.394-4,2S625,1146,625,1146Zm20,0s-0.628,7,3,7h7s2-.39,2-6,2-175,2-175-0.128-4-3-4h-7s-3.628-.394-4,2S645,1146,645,1146Z"/>
    <path id="LibroAmarillo_-_exterior" data-name="LibroAmarillo - exterior" class="cls-1" d="M609,1154s-0.128,7-3,7H587s-6-.89-6-7V952s-0.128-40,41-40,62-2,62-2,40,1.106,40,40,1,204,1,204-0.628,8-5,8H701a7.185,7.185,0,0,1-5-7V964s-0.628-26-22-26H631s-22,.606-22,22v194Z"/>
  </g>
  <g id="LibroVioleta">
    <path id="LibroVioleta_-_interior" data-name="LibroVioleta - interior" class="cls-2" d="M321,1027s-2.378-3.62,0-6S450,892,450,892s1.622-3.378,5,0l7,7s2.122,2.878,0,5L332,1034s-2.378,1.62-5-1S321,1027,321,1027Zm1-8c2.378-2.38,129-129,129-129M322,1019c2.378-2.38,129-129,129-129M336,1044s-2.378-3.62,0-6S465,909,465,909s1.622-3.378,5,0l7,7s2.122,2.878,0,5L347,1051s-2.378,1.62-5-1S336,1044,336,1044Zm17,17s-2.378-3.62,0-6S482,926,482,926s1.622-3.378,5,0l7,7s2.122,2.878,0,5L364,1068s-2.378,1.62-5-1S353,1061,353,1061Z"/>
    <path id="LibroVioleta_-_exterior" data-name="LibroVioleta - exterior" class="cls-2" d="M282,994s-1.771,7.02,3,12c5.628,5.88,12,13,12,13s6.122,3.88,12-2S446,882,446,882s21.356-17.644,39,0,23,21,23,21,17.644,18.356,1,35-138,137-138,137-5.644,6.36-1,11,13,13,13,13,5.644,5.36,11,0S544,951,544,951s24.622-29.378,0-54-51-50-51-50-32.856-31.144-63-1Z"/>
  </g>
  <g id="LibroVerde">
    <path id="LibroVerde_-_exterior" data-name="LibroVerde - exterior" class="cls-3" d="M232,705c-6.219,0-6-6-6-6V680c0-3.568,6-4,6-4l210,2s36,0.932,36,35,1,70,1,70-0.219,37-37,37H232s-6-1.568-6-7V797s-0.219-5,5-5,192-1,192-1,26-1.568,26-25V727s-1.719-22-28-22H232Z"/>
    <path id="LibroVerde_-_interior" data-name="LibroVerde - interior" class="cls-3" d="M251,719H415s6,0.432,6,4v6s-2.719,4-3,4c-6.281,0-178-1-178-1s-5,.432-5-3v-7s0.281-3,5-3h11Zm0,44H415s6,0.432,6,4v6s-2.719,4-3,4c-6.281,0-178-1-178-1s-5,.432-5-3v-7s0.281-3,5-3h11Zm0-21H415s6,0.432,6,4v6s-2.719,4-3,4c-6.281,0-178-1-178-1s-5,.432-5-3v-7s0.281-3,5-3h11Z"/>
  </g>
  <g id="LibroAzul">
    <path id="LibroAzul_-_exterior" data-name="LibroAzul - exterior" class="cls-4" d="M369,423s-5.062-4.938,0-10l11-11s6.843-5.157,11-1S542,550,542,550s23.438,29.562,1,52-51,53-51,53-37.157,26.843-64,0S279,504,279,504s-4.343-6.657,1-12,12-13,12-13,5.843-4.157,12,2L441,618s21.157,19.843,37,4l30-30s15.438-12.562-2-30S369,423,369,423Z"/>
    <path id="LibroAzul_-_interior" data-name="LibroAzul - interior" class="cls-4" d="M317,481s-3.062-3.938,0-7a74.866,74.866,0,0,0,6-7s2.438-1.562,5,1S458,596,458,596s2.438,2.562,0,5l-8,8s-3.657,2.343-6,0S317,481,317,481Zm35-34s-3.062-3.938,0-7a74.866,74.866,0,0,0,6-7s2.438-1.562,5,1S493,562,493,562s2.438,2.562,0,5l-8,8s-3.657,2.343-6,0S352,447,352,447Zm-17,17s-3.062-3.938,0-7a74.866,74.866,0,0,0,6-7s2.438-1.562,5,1S476,579,476,579s2.438,2.562,0,5l-8,8s-3.657,2.343-6,0S335,464,335,464Z"/>
  </g>
  <g id="LibroNaranja">
    <path id="LibroNaranja_-_exterior" data-name="LibroNaranja - exterior" class="cls-5" d="M694,346s-0.9-8,7-8h16s5,0.519,5,8,1,203,1,203-1.237,41-40,41H619s-40-.814-40-41-1-204-1-204,0.1-6,7-6h16s6,0.186,6,4,1,195,1,195,0.43,23,21,23h42s24-.481,24-22S694,346,694,346Z"/>
    <path id="LibroNaranja_-_interior" data-name="LibroNaranja - interior" class="cls-5" d="M622,351s0.483-5,4-5h6s3,0.193,3,3,1,179,1,179-0.183,4-2,4h-9s-3-1.474-3-4V351Zm21,0s0.483-5,4-5h6s3,0.193,3,3,1,179,1,179-0.183,4-2,4h-9s-3-1.474-3-4V351Zm21,0s0.483-5,4-5h6s3,0.193,3,3,1,179,1,179-0.183,4-2,4h-9s-3-1.474-3-4V351Z"/>
  </g>
  <text id="Biblioteca" class="cls-6" x="725" y="823">Biblioteca</text>
</svg>
