<svg xmlns="http://www.w3.org/2000/svg" width="100" height="100" viewBox="0 0 1000 1000">
  <defs>
    <style>
      .cls-1 {
        fill: #ffd300;
      }

      .cls-1, .cls-2, .cls-3, .cls-4, .cls-5 {
        fill-rule: evenodd;
      }

      .cls-2 {
        fill: #751ebb;
      }

      .cls-3 {
        fill: #008e2c;
      }

      .cls-4 {
        fill: #006cb7;
      }

      .cls-5 {
        fill: #ff451a;
      }
    </style>
  </defs>
  <g id="Mesa_de_trabajo_1" data-name="Mesa de trabajo 1">
    <g id="Logo">
      <g id="LibroAmarillo">
        <path id="LibroAmarillo_-_interior" data-name="LibroAmarillo - interior" class="cls-1" d="M671.476,976.67s-0.755,8.426,3.611,8.426h8.427s2.407-.474,2.407-7.223,2.407-210.649,2.407-210.649-0.153-4.815-3.611-4.815h-8.426s-4.366-.474-4.815,2.407S671.476,976.67,671.476,976.67Zm-51.759,0s-0.756,8.426,3.611,8.426h8.426s2.407-.474,2.407-7.223,2.408-210.649,2.408-210.649-0.154-4.815-3.611-4.815h-8.426s-4.367-.474-4.815,2.407S619.717,976.67,619.717,976.67Zm24.074,0s-0.756,8.426,3.611,8.426h8.426s2.407-.474,2.407-7.223,2.408-210.649,2.408-210.649-0.154-4.815-3.611-4.815h-8.426s-4.367-.474-4.815,2.407S643.791,976.67,643.791,976.67Z"/>
        <path id="LibroAmarillo_-_exterior" data-name="LibroAmarillo - exterior" class="cls-1" d="M603.463,986.3s-0.153,8.426-3.611,8.426h-22.87s-7.222-1.075-7.222-8.426V743.15S569.606,695,619.112,695s74.63-2.407,74.63-2.407,48.148,1.331,48.148,48.148,1.2,245.557,1.2,245.557-0.756,9.63-6.019,9.63h-22.87a8.655,8.655,0,0,1-6.019-8.426V757.594s-0.755-31.3-26.481-31.3h-51.76s-26.482.729-26.482,26.481V986.3Z"/>
      </g>
      <g id="LibroVioleta">
        <path id="LibroVioleta_-_interior" data-name="LibroVioleta - interior" class="cls-2" d="M258.8,833.428s-2.863-4.36,0-7.222L414.077,670.927s1.953-4.066,6.019,0l8.426,8.426s2.554,3.464,0,6.018L272.039,841.854s-2.862,1.953-6.018-1.2S258.8,833.428,258.8,833.428Zm1.2-9.63L415.281,668.519M260,823.8L415.281,668.519M276.854,853.891s-2.862-4.36,0-7.222L432.133,691.39s1.953-4.066,6.018,0l8.426,8.426s2.555,3.464,0,6.019L290.1,862.317s-2.862,1.953-6.019-1.2Zm20.463,20.463s-2.862-4.36,0-7.222L452.6,711.853s1.953-4.066,6.019,0l8.425,8.426s2.555,3.464,0,6.019L310.558,882.78s-2.862,1.953-6.018-1.2Z"/>
        <path id="LibroVioleta_-_exterior" data-name="LibroVioleta - exterior" class="cls-2" d="M211.854,793.705s-2.131,8.448,3.611,14.445c6.774,7.075,14.444,15.648,14.444,15.648s7.37,4.668,14.445-2.407,164.908-162.5,164.908-162.5,25.707-21.238,46.945,0,27.685,25.278,27.685,25.278,21.238,22.1,1.2,42.13S318.984,891.206,318.984,891.206s-6.793,7.651-1.2,13.241L333.429,920.1s6.793,6.448,13.24,0S527.226,741.946,527.226,741.946s29.638-35.362,0-65-61.389-60.185-61.389-60.185-39.55-37.488-75.834-1.2Z"/>
      </g>
      <g id="LibroVerde">
        <path id="LibroVerde_-_exterior" data-name="LibroVerde - exterior" class="cls-3" d="M151.668,445.833c-7.485,0-7.222-7.222-7.222-7.222V415.74c0-4.3,7.222-4.815,7.222-4.815l252.78,2.408s43.333,1.122,43.333,42.13,1.2,84.259,1.2,84.259-0.263,44.538-44.537,44.538H151.668s-7.222-1.888-7.222-8.426v-19.26s-0.263-6.018,6.018-6.018,231.113-1.2,231.113-1.2,31.3-1.888,31.3-30.093V472.314s-2.068-26.481-33.7-26.481h-227.5Z"/>
        <path id="LibroVerde_-_interior" data-name="LibroVerde - interior" class="cls-3" d="M174.539,462.685H371.947s7.223,0.52,7.223,4.815v7.222s-3.273,4.815-3.612,4.815c-7.561,0-214.26-1.2-214.26-1.2s-6.019.52-6.019-3.611V466.3s0.339-3.611,6.019-3.611h13.241Zm0,52.963H371.947s7.223,0.52,7.223,4.815v7.222s-3.273,4.815-3.612,4.815c-7.561,0-214.26-1.2-214.26-1.2s-6.019.52-6.019-3.611v-8.426s0.339-3.611,6.019-3.611h13.241Zm0-25.278H371.947s7.223,0.52,7.223,4.815v7.222s-3.273,4.815-3.612,4.815c-7.561,0-214.26-1.2-214.26-1.2s-6.019.52-6.019-3.611v-8.426s0.339-3.611,6.019-3.611h13.241Z"/>
      </g>
      <g id="LibroAzul">
        <path id="LibroAzul_-_exterior" data-name="LibroAzul - exterior" class="cls-4" d="M316.577,106.386s-6.094-5.944,0-12.037l13.241-13.241s8.236-6.207,13.24-1.2S524.819,259.258,524.819,259.258s28.212,35.583,1.2,62.593-61.389,63.8-61.389,63.8-44.726,32.312-77.037,0-179.354-181.76-179.354-181.76-5.227-8.013,1.2-14.445,14.445-15.648,14.445-15.648,7.033-5,14.444,2.407L403.244,341.11s25.467,23.885,44.537,4.815l36.111-36.112s18.584-15.12-2.407-36.111S316.577,106.386,316.577,106.386Z"/>
        <path id="LibroAzul_-_interior" data-name="LibroAzul - interior" class="cls-4" d="M253.984,176.2s-3.686-4.74,0-8.425a90.258,90.258,0,0,0,7.222-8.426s2.935-1.88,6.018,1.2S423.707,314.628,423.707,314.628s2.935,3.084,0,6.019l-9.63,9.629s-4.4,2.821-7.222,0S253.984,176.2,253.984,176.2Zm42.129-40.926s-3.685-4.74,0-8.426a90.033,90.033,0,0,0,7.223-8.426s2.935-1.88,6.018,1.2S465.837,273.7,465.837,273.7s2.935,3.084,0,6.019l-9.63,9.629s-4.4,2.821-7.222,0S296.113,135.275,296.113,135.275ZM275.65,155.738s-3.685-4.74,0-8.426a90.033,90.033,0,0,0,7.223-8.426s2.934-1.88,6.018,1.2S445.374,294.165,445.374,294.165s2.935,3.084,0,6.019l-9.63,9.629s-4.4,2.821-7.222,0S275.65,155.738,275.65,155.738Z"/>
      </g>
      <g id="LibroNaranja">
        <path id="LibroNaranja_-_exterior" data-name="LibroNaranja - exterior" class="cls-5" d="M709.493,13.7s-1.087-9.63,8.426-9.63h19.26S743.2,4.7,743.2,13.7s1.2,244.354,1.2,244.354-1.489,49.352-48.148,49.352H619.215s-48.148-.98-48.148-49.352-1.2-245.557-1.2-245.557,0.116-7.222,8.426-7.222h19.259s7.222,0.224,7.222,4.815,1.2,234.724,1.2,234.724,0.518,27.685,25.278,27.685h50.556s28.889-.579,28.889-26.481S709.493,13.7,709.493,13.7Z"/>
        <path id="LibroNaranja_-_interior" data-name="LibroNaranja - interior" class="cls-5" d="M622.826,19.719s0.582-6.019,4.815-6.019h7.222s3.611,0.232,3.611,3.611,1.2,215.465,1.2,215.465-0.22,4.815-2.407,4.815H626.437s-3.611-1.774-3.611-4.815V19.719Zm25.278,0s0.582-6.019,4.815-6.019h7.222s3.611,0.232,3.611,3.611,1.2,215.465,1.2,215.465-0.221,4.815-2.407,4.815H651.715s-3.611-1.774-3.611-4.815V19.719Zm25.278,0S673.964,13.7,678.2,13.7h7.222s3.611,0.232,3.611,3.611,1.2,215.465,1.2,215.465-0.221,4.815-2.407,4.815H676.993s-3.611-1.774-3.611-4.815V19.719Z"/>
      </g>
    </g>
  </g>
</svg>
